<?xml version="1.0" standalone="no"?>
<!DOCTYPE svg PUBLIC "-//W3C//DTD SVG 20010904//EN"
 "http://www.w3.org/TR/2001/REC-SVG-20010904/DTD/svg10.dtd">
<svg version="1.0" xmlns="http://www.w3.org/2000/svg"
 width="300.000000pt" height="300.000000pt" viewBox="0 0 300.000000 300.000000"
 preserveAspectRatio="xMidYMid meet">
<metadata>
Created by potrace 1.11, written by Peter Selinger 2001-2013
</metadata>
<g transform="translate(0.000000,300.000000) scale(0.100000,-0.100000)"
fill="#000000" stroke="none">
<path d="M0 1500 l0 -1500 1500 0 1500 0 0 1500 0 1500 -1500 0 -1500 0 0
-1500z m2410 764 l0 -285 -51 3 -51 3 -27 70 c-58 149 -185 321 -261 353 -24
10 -87 16 -197 20 l-163 5 0 -862 c0 -828 1 -863 19 -899 27 -52 61 -68 195
-94 l116 -23 0 -52 0 -53 -490 0 -490 0 0 54 0 53 101 12 c121 13 181 37 209
83 20 32 20 47 20 906 l0 872 -117 0 c-230 -1 -267 -14 -366 -136 -45 -55
-130 -209 -155 -281 -10 -31 -13 -33 -61 -33 l-51 0 0 285 0 285 910 0 910 0
0 -286z"/>
</g>
</svg>
